<?xml version="1.0" encoding="UTF-8"?><svg id="Ebene_1" xmlns="http://www.w3.org/2000/svg" viewBox="0 0 387.45 123.78"><defs><style>.cls-1{stroke:#fff;stroke-miterlimit:10;stroke-width:2.5px;}.cls-1,.cls-2{fill:#f6f6f6;}.cls-3{fill:#1d1d1b;}</style></defs><g><path class="cls-2" d="M144.82,79.37h19.5l.3,3h-23.52V41.57h3.72v37.8Z"/><path class="cls-2" d="M179.86,55.61c-1.88,0-3.35,.16-4.41,.48-1.06,.32-2.37,.84-3.93,1.56l-1.14-2.64c1.04-.72,2.52-1.32,4.44-1.8s3.54-.72,4.86-.72c3.32,0,5.96,.86,7.92,2.58,1.96,1.72,2.94,4.02,2.94,6.9v20.4h-3.06l-.48-3.12c-1,1.04-2.33,1.95-3.99,2.73-1.66,.78-3.29,1.17-4.89,1.17-3.16,0-5.58-.83-7.26-2.49-1.68-1.66-2.52-3.81-2.52-6.45s.96-4.86,2.88-6.42,4.42-2.32,7.5-2.28h8.1v-2.94c0-2.12-.59-3.81-1.77-5.07-1.18-1.26-2.91-1.89-5.19-1.89Zm-1.26,12.36c-2.08,0-3.7,.6-4.86,1.8-1.16,1.2-1.74,2.68-1.74,4.44,0,1.56,.5,2.93,1.5,4.11,1,1.18,2.5,1.77,4.5,1.77,1.76,0,3.39-.45,4.89-1.35,1.5-.9,2.81-2.03,3.93-3.39v-7.38h-8.22Z"/><path class="cls-2" d="M207.22,79.91c1.52,0,3.29-.57,5.31-1.71,2.02-1.14,3.69-2.55,5.01-4.23v-20.76h3.72v29.16h-3.06l-.6-4.5c-1.24,1.44-2.9,2.67-4.98,3.69-2.08,1.02-4.02,1.53-5.82,1.53-3,0-5.24-.88-6.72-2.64-1.48-1.76-2.22-4.1-2.22-7.02v-20.16h3.72v19.44c0,4.8,1.88,7.2,5.64,7.2Z"/><path class="cls-2" d="M243.1,55.67c-1.52,0-3.29,.57-5.31,1.71-2.02,1.14-3.69,2.55-5.01,4.23v20.76h-3.72v-29.1h3.06l.6,4.44c1.24-1.44,2.9-2.67,4.98-3.69,2.08-1.02,4.02-1.53,5.82-1.53,3,0,5.24,.88,6.72,2.64,1.48,1.76,2.22,4.1,2.22,7.02v20.16h-3.72v-19.44c0-4.8-1.88-7.2-5.64-7.2Z"/><path class="cls-2" d="M271.77,80.03c1.88,0,3.31-.15,4.29-.45,.98-.3,2.23-.83,3.75-1.59l1.2,2.7c-1.12,.72-2.6,1.31-4.44,1.77-1.84,.46-3.42,.69-4.74,.69-2.8,0-5.23-.65-7.29-1.95-2.06-1.3-3.63-3.12-4.71-5.46-1.08-2.34-1.62-5.03-1.62-8.07,0-2.88,.58-5.48,1.74-7.8,1.16-2.32,2.8-4.13,4.92-5.43,2.12-1.3,4.58-1.95,7.38-1.95,1.24,0,2.78,.24,4.62,.72s3.32,1.08,4.44,1.8l-1.2,2.64c-1.44-.72-2.69-1.24-3.75-1.56-1.06-.32-2.49-.48-4.29-.48-3.12,0-5.57,1.12-7.35,3.36-1.78,2.24-2.69,5.12-2.73,8.64,0,3.72,.84,6.72,2.52,9,1.68,2.28,4.1,3.42,7.26,3.42Z"/><path class="cls-2" d="M311.07,62.15v20.16h-3.72v-19.44c0-4.8-1.88-7.2-5.64-7.2-1.52,0-3.29,.57-5.31,1.71-2.02,1.14-3.69,2.55-5.01,4.23v20.76h-3.72V40.61l3.72-.6v17.64c1.24-1.44,2.89-2.66,4.95-3.66,2.06-1,3.99-1.5,5.79-1.5,3,0,5.24,.88,6.72,2.64,1.48,1.76,2.22,4.1,2.22,7.02Z"/><path class="cls-2" d="M326.73,68.93v13.44h-6.72V41.57h6.72v18l18.18-18.9,4.86,3.9-14.22,15.06,17.04,22.74h-8.28l-13.38-17.94-4.2,4.5Z"/><path class="cls-2" d="M363.99,44.57c0,1.12-.39,2.07-1.17,2.85-.78,.78-1.73,1.17-2.85,1.17s-2.05-.39-2.79-1.17c-.74-.78-1.11-1.73-1.11-2.85s.38-2.01,1.14-2.79c.76-.78,1.68-1.17,2.76-1.17s2.07,.39,2.85,1.17c.78,.78,1.17,1.71,1.17,2.79Zm-.54,8.7v29.1h-6.78v-29.1h6.78Z"/><path class="cls-2" d="M378.39,53.51h5.28l2.04,5.16h-7.32v13.86c0,1.56,.35,2.81,1.05,3.75,.7,.94,1.75,1.41,3.15,1.41,.92,0,1.92-.24,3-.72l1.86,4.98c-.6,.4-1.43,.75-2.49,1.05-1.06,.3-2.03,.45-2.91,.45-3.24,0-5.78-.84-7.62-2.52-1.84-1.68-2.76-4.1-2.76-7.26v-15h-4.02v-5.16h4.02v-7.14l6.72-1.32v8.46Z"/></g><rect class="cls-1" x="1.25" y="1.25" width="121.28" height="121.28"/><g><path class="cls-3" d="M27.55,60.5v17.37h-8.83V44.87h8.2l12.71,17.9v-17.9h8.83v32.99h-8.25l-12.66-17.37Z"/><path class="cls-3" d="M64.8,58.46h10.14l.82,6.94h-10.96v12.47h-8.83V44.92h21.39l.82,6.94h-13.39v6.6Z"/><path class="cls-3" d="M79.41,44.87h28.23l.82,6.94h-10.53v26.05h-8.83v-26.05h-9.7v-6.94Z"/></g></svg>
